<svg width="205" height="52" viewBox="0 0 205 52" fill="none" xmlns="http://www.w3.org/2000/svg">
<g filter="url(#filter0_d_389_470)">
<rect x="2" y="1" width="201" height="48" rx="24" fill="white"/>
<rect x="2.5" y="1.5" width="200" height="47" rx="23.5" stroke="#CBCFD5"/>
<path fill-rule="evenodd" clip-rule="evenodd" d="M29.6001 33.4004C29.6001 32.7376 30.1374 32.2004 30.8001 32.2004H45.2001C45.8628 32.2004 46.4001 32.7376 46.4001 33.4004C46.4001 34.0631 45.8628 34.6004 45.2001 34.6004H30.8001C30.1374 34.6004 29.6001 34.0631 29.6001 33.4004ZM33.5516 21.0489C33.0829 20.5803 33.0829 19.8205 33.5516 19.3519L37.1516 15.7519C37.3766 15.5268 37.6818 15.4004 38.0001 15.4004C38.3184 15.4004 38.6236 15.5268 38.8486 15.7519L42.4486 19.3519C42.9173 19.8205 42.9173 20.5803 42.4486 21.0489C41.98 21.5175 41.2202 21.5175 40.7516 21.0489L39.2001 19.4974L39.2001 28.6004C39.2001 29.2631 38.6628 29.8004 38.0001 29.8004C37.3374 29.8004 36.8001 29.2631 36.8001 28.6004L36.8001 19.4974L35.2486 21.0489C34.78 21.5175 34.0202 21.5175 33.5516 21.0489Z" fill="#2236EE"/>
<path d="M66.4055 22.5078C66.3459 21.9496 66.0945 21.5149 65.6513 21.2038C65.2124 20.8928 64.6413 20.7372 63.9382 20.7372C63.4439 20.7372 63.0199 20.8118 62.6662 20.9609C62.3125 21.1101 62.0419 21.3125 61.8544 21.5682C61.6669 21.8239 61.571 22.1158 61.5668 22.4439C61.5668 22.7166 61.6286 22.9531 61.7521 23.1534C61.88 23.3537 62.0526 23.5241 62.2699 23.6648C62.4872 23.8011 62.728 23.9162 62.9922 24.0099C63.2564 24.1037 63.5227 24.1825 63.7912 24.2464L65.0185 24.5533C65.5128 24.6683 65.9879 24.8239 66.4439 25.0199C66.9041 25.2159 67.3153 25.4631 67.6776 25.7614C68.044 26.0597 68.3338 26.4197 68.5469 26.8416C68.7599 27.2635 68.8665 27.7578 68.8665 28.3246C68.8665 29.0916 68.6705 29.767 68.2784 30.3509C67.8864 30.9304 67.3196 31.3842 66.5781 31.7124C65.8409 32.0362 64.9482 32.1982 63.8999 32.1982C62.8814 32.1982 61.9972 32.0405 61.2472 31.7251C60.5014 31.4098 59.9176 30.9496 59.4957 30.3445C59.0781 29.7393 58.8523 29.0021 58.8182 28.1328H61.1513C61.1854 28.5888 61.326 28.968 61.5732 29.2706C61.8203 29.5732 62.142 29.799 62.5384 29.9482C62.9389 30.0973 63.3864 30.1719 63.8807 30.1719C64.3963 30.1719 64.848 30.0952 65.2358 29.9418C65.6278 29.7841 65.9347 29.5668 66.1562 29.2898C66.3778 29.0085 66.4908 28.6804 66.495 28.3054C66.4908 27.9645 66.3906 27.6832 66.1946 27.4616C65.9986 27.2358 65.7237 27.0483 65.37 26.8991C65.0206 26.7457 64.6115 26.6094 64.1428 26.4901L62.6534 26.1065C61.5753 25.8295 60.723 25.4098 60.0966 24.8473C59.4744 24.2805 59.1634 23.5284 59.1634 22.5909C59.1634 21.8196 59.3722 21.1442 59.7898 20.5646C60.2116 19.9851 60.7848 19.5355 61.5092 19.2159C62.2337 18.892 63.054 18.7301 63.9702 18.7301C64.8991 18.7301 65.7131 18.892 66.4119 19.2159C67.1151 19.5355 67.6669 19.9808 68.0675 20.5518C68.468 21.1186 68.6747 21.7706 68.6875 22.5078H66.4055ZM74.865 32.1918C73.8806 32.1918 73.0304 31.9872 72.3145 31.5781C71.6029 31.1648 71.0553 30.581 70.6718 29.8267C70.2883 29.0682 70.0965 28.1754 70.0965 27.1484C70.0965 26.1385 70.2883 25.2521 70.6718 24.4893C71.0596 23.7223 71.6008 23.1257 72.2954 22.6996C72.99 22.2692 73.806 22.054 74.7435 22.054C75.3486 22.054 75.9197 22.152 76.4566 22.348C76.9978 22.5398 77.4751 22.8381 77.8884 23.2429C78.306 23.6477 78.6341 24.1634 78.8728 24.7898C79.1114 25.4119 79.2307 26.1534 79.2307 27.0142V27.7237H71.1831V26.1641H77.0127C77.0084 25.7209 76.9126 25.3267 76.7251 24.9815C76.5376 24.6321 76.2755 24.3572 75.9388 24.157C75.6064 23.9567 75.2187 23.8565 74.7755 23.8565C74.3025 23.8565 73.887 23.9716 73.529 24.2017C73.1711 24.4276 72.892 24.7259 72.6917 25.0966C72.4956 25.4631 72.3955 25.8658 72.3912 26.3047V27.6662C72.3912 28.2372 72.4956 28.7273 72.7045 29.1364C72.9133 29.5412 73.2052 29.8523 73.5802 30.0696C73.9552 30.2827 74.3941 30.3892 74.8969 30.3892C75.2336 30.3892 75.5383 30.3423 75.811 30.2486C76.0837 30.1506 76.3202 30.0078 76.5205 29.8203C76.7208 29.6328 76.8721 29.4006 76.9743 29.1236L79.1349 29.3665C78.9985 29.9375 78.7385 30.4361 78.355 30.8622C77.9758 31.2841 77.49 31.6122 76.8976 31.8466C76.3053 32.0767 75.6277 32.1918 74.865 32.1918ZM83.1422 26.2472V32H80.8283V22.1818H83.0399V23.8501H83.155C83.3809 23.3004 83.7409 22.8636 84.2353 22.5398C84.7338 22.2159 85.3496 22.054 86.0826 22.054C86.7601 22.054 87.3503 22.1989 87.8532 22.4886C88.3603 22.7784 88.7523 23.1982 89.0293 23.7479C89.3105 24.2976 89.449 24.9645 89.4448 25.7486V32H87.1309V26.1065C87.1309 25.4503 86.9604 24.9368 86.6195 24.5661C86.2828 24.1953 85.8162 24.0099 85.2196 24.0099C84.8148 24.0099 84.4547 24.0994 84.1394 24.2784C83.8283 24.4531 83.5833 24.7067 83.4043 25.0391C83.2296 25.3714 83.1422 25.7741 83.1422 26.2472ZM95.0805 32.1726C94.3092 32.1726 93.6189 31.9744 93.0095 31.5781C92.4001 31.1818 91.9186 30.6065 91.5649 29.8523C91.2112 29.098 91.0343 28.1818 91.0343 27.1037C91.0343 26.0128 91.2133 25.0923 91.5713 24.3423C91.9335 23.5881 92.4214 23.0192 93.0351 22.6357C93.6487 22.2479 94.3326 22.054 95.0869 22.054C95.6622 22.054 96.1352 22.152 96.5059 22.348C96.8767 22.5398 97.1707 22.772 97.388 23.0447C97.6054 23.3132 97.7737 23.5668 97.893 23.8054H97.9889V18.9091H100.309V32H98.0336V30.4531H97.893C97.7737 30.6918 97.6011 30.9453 97.3753 31.2138C97.1494 31.478 96.8511 31.7038 96.4804 31.8913C96.1096 32.0788 95.643 32.1726 95.0805 32.1726ZM95.7261 30.2741C96.2162 30.2741 96.6338 30.142 96.9789 29.8778C97.3241 29.6094 97.5862 29.2365 97.7652 28.7592C97.9441 28.282 98.0336 27.7259 98.0336 27.0909C98.0336 26.456 97.9441 25.9041 97.7652 25.4354C97.5905 24.9666 97.3305 24.6023 96.9853 24.3423C96.6444 24.0824 96.2247 23.9524 95.7261 23.9524C95.2105 23.9524 94.7801 24.0866 94.4349 24.3551C94.0897 24.6236 93.8298 24.9943 93.6551 25.4673C93.4804 25.9403 93.393 26.4815 93.393 27.0909C93.393 27.7045 93.4804 28.2521 93.6551 28.7337C93.8341 29.2109 94.0961 29.5881 94.4413 29.8651C94.7907 30.1378 95.219 30.2741 95.7261 30.2741ZM106.52 32V22.1818H108.731V23.8501H108.846C109.051 23.2876 109.39 22.8487 109.863 22.5334C110.336 22.2138 110.9 22.054 111.557 22.054C112.221 22.054 112.782 22.2159 113.238 22.5398C113.698 22.8594 114.022 23.2962 114.209 23.8501H114.312C114.529 23.3047 114.895 22.87 115.411 22.5462C115.931 22.218 116.547 22.054 117.258 22.054C118.162 22.054 118.899 22.3395 119.47 22.9105C120.041 23.4815 120.327 24.3146 120.327 25.4098V32H118.006V25.7678C118.006 25.1584 117.844 24.7131 117.52 24.4318C117.197 24.1463 116.8 24.0036 116.332 24.0036C115.773 24.0036 115.337 24.1783 115.021 24.5277C114.71 24.8729 114.555 25.3224 114.555 25.8764V32H112.285V25.6719C112.285 25.1648 112.132 24.7599 111.825 24.4574C111.523 24.1548 111.126 24.0036 110.636 24.0036C110.304 24.0036 110.001 24.0888 109.729 24.2592C109.456 24.4254 109.239 24.6619 109.077 24.9688C108.915 25.2713 108.834 25.625 108.834 26.0298V32H106.52ZM126.597 32.1918C125.638 32.1918 124.807 31.9808 124.104 31.5589C123.401 31.1371 122.855 30.5469 122.467 29.7884C122.084 29.0298 121.892 28.1435 121.892 27.1293C121.892 26.1151 122.084 25.2266 122.467 24.4638C122.855 23.701 123.401 23.1087 124.104 22.6868C124.807 22.2649 125.638 22.054 126.597 22.054C127.556 22.054 128.387 22.2649 129.09 22.6868C129.793 23.1087 130.336 23.701 130.72 24.4638C131.107 25.2266 131.301 26.1151 131.301 27.1293C131.301 28.1435 131.107 29.0298 130.72 29.7884C130.336 30.5469 129.793 31.1371 129.09 31.5589C128.387 31.9808 127.556 32.1918 126.597 32.1918ZM126.61 30.3381C127.129 30.3381 127.564 30.1953 127.914 29.9098C128.263 29.62 128.523 29.2322 128.693 28.7464C128.868 28.2607 128.955 27.7195 128.955 27.1229C128.955 26.522 128.868 25.9787 128.693 25.4929C128.523 25.0028 128.263 24.6129 127.914 24.3232C127.564 24.0334 127.129 23.8885 126.61 23.8885C126.077 23.8885 125.634 24.0334 125.28 24.3232C124.931 24.6129 124.668 25.0028 124.494 25.4929C124.323 25.9787 124.238 26.522 124.238 27.1229C124.238 27.7195 124.323 28.2607 124.494 28.7464C124.668 29.2322 124.931 29.62 125.28 29.9098C125.634 30.1953 126.077 30.3381 126.61 30.3381ZM135.219 26.2472V32H132.905V22.1818H135.117V23.8501H135.232C135.458 23.3004 135.818 22.8636 136.312 22.5398C136.811 22.2159 137.427 22.054 138.16 22.054C138.837 22.054 139.427 22.1989 139.93 22.4886C140.437 22.7784 140.829 23.1982 141.106 23.7479C141.387 24.2976 141.526 24.9645 141.522 25.7486V32H139.208V26.1065C139.208 25.4503 139.037 24.9368 138.696 24.5661C138.36 24.1953 137.893 24.0099 137.297 24.0099C136.892 24.0099 136.532 24.0994 136.216 24.2784C135.905 24.4531 135.66 24.7067 135.481 25.0391C135.307 25.3714 135.219 25.7741 135.219 26.2472ZM147.861 32.1918C146.876 32.1918 146.026 31.9872 145.31 31.5781C144.599 31.1648 144.051 30.581 143.667 29.8267C143.284 29.0682 143.092 28.1754 143.092 27.1484C143.092 26.1385 143.284 25.2521 143.667 24.4893C144.055 23.7223 144.596 23.1257 145.291 22.6996C145.986 22.2692 146.802 22.054 147.739 22.054C148.344 22.054 148.915 22.152 149.452 22.348C149.993 22.5398 150.471 22.8381 150.884 23.2429C151.302 23.6477 151.63 24.1634 151.868 24.7898C152.107 25.4119 152.226 26.1534 152.226 27.0142V27.7237H144.179V26.1641H150.008C150.004 25.7209 149.908 25.3267 149.721 24.9815C149.533 24.6321 149.271 24.3572 148.934 24.157C148.602 23.9567 148.214 23.8565 147.771 23.8565C147.298 23.8565 146.883 23.9716 146.525 24.2017C146.167 24.4276 145.888 24.7259 145.687 25.0966C145.491 25.4631 145.391 25.8658 145.387 26.3047V27.6662C145.387 28.2372 145.491 28.7273 145.7 29.1364C145.909 29.5412 146.201 29.8523 146.576 30.0696C146.951 30.2827 147.39 30.3892 147.893 30.3892C148.229 30.3892 148.534 30.3423 148.807 30.2486C149.079 30.1506 149.316 30.0078 149.516 29.8203C149.716 29.6328 149.868 29.4006 149.97 29.1236L152.13 29.3665C151.994 29.9375 151.734 30.4361 151.351 30.8622C150.971 31.2841 150.486 31.6122 149.893 31.8466C149.301 32.0767 148.623 32.1918 147.861 32.1918ZM154.981 35.6818C154.666 35.6818 154.374 35.6563 154.105 35.6051C153.841 35.5582 153.63 35.5028 153.472 35.4389L154.009 33.6364C154.346 33.7344 154.646 33.7813 154.911 33.777C155.175 33.7727 155.407 33.6896 155.607 33.5277C155.812 33.37 155.984 33.1058 156.125 32.7351L156.323 32.2045L152.763 22.1818H155.217L157.48 29.5966H157.582L159.852 22.1818H162.313L158.381 33.1889C158.198 33.7088 157.955 34.1541 157.653 34.5249C157.35 34.8999 156.979 35.1854 156.541 35.3814C156.106 35.5817 155.586 35.6818 154.981 35.6818Z" fill="#2236EE"/>
</g>
<defs>
<filter id="filter0_d_389_470" x="0" y="0" width="205" height="52" filterUnits="userSpaceOnUse" color-interpolation-filters="sRGB">
<feFlood flood-opacity="0" result="BackgroundImageFix"/>
<feColorMatrix in="SourceAlpha" type="matrix" values="0 0 0 0 0 0 0 0 0 0 0 0 0 0 0 0 0 0 127 0" result="hardAlpha"/>
<feOffset dy="1"/>
<feGaussianBlur stdDeviation="1"/>
<feColorMatrix type="matrix" values="0 0 0 0 0.0627451 0 0 0 0 0.0941176 0 0 0 0 0.156863 0 0 0 0.05 0"/>
<feBlend mode="normal" in2="BackgroundImageFix" result="effect1_dropShadow_389_470"/>
<feBlend mode="normal" in="SourceGraphic" in2="effect1_dropShadow_389_470" result="shape"/>
</filter>
</defs>
</svg>
